HIERARCHY
ROOT HMD
{
	OFFSET 0.0 0.0 0.0
	CHANNELS 6 Xposition Yposition Zposition Zrotation Xrotation Yrotation
	JOINT Head
	{
		OFFSET 0.0 0.0 10.0
		CHANNELS 3 Zrotation Xrotation Yrotation
		JOINT Neck
		{
			OFFSET 0.0 -10.0 0.0
			CHANNELS 3 Zrotation Xrotation Yrotation
			JOINT Chest
			{
				OFFSET 0.0 -32.0 0.0
				CHANNELS 3 Zrotation Xrotation Yrotation
				JOINT Waist
				{
					OFFSET 0.0 -20.000002 0.0
					CHANNELS 3 Zrotation Xrotation Yrotation
					JOINT Hip
					{
						OFFSET 0.0 -4.0 0.0
						CHANNELS 3 Zrotation Xrotation Yrotation
						JOINT Left-Hip
						{
							OFFSET -13.0 0.0 0.0
							CHANNELS 3 Zrotation Xrotation Yrotation
							JOINT Left-Knee
							{
								OFFSET 0.0 -42.0 0.0
								CHANNELS 3 Zrotation Xrotation Yrotation
								JOINT Left-Ankle
								{
									OFFSET 0.0 -50.0 5.0
									CHANNELS 3 Zrotation Xrotation Yrotation
									JOINT Left-Foot
									{
										OFFSET 0.0 0.0 -5.0
										CHANNELS 3 Zrotation Xrotation Yrotation
										End Site
										{
											OFFSET 0.0 0.0 -0.0
										}
									}
								}
							}
						}
						JOINT Right-Hip
						{
							OFFSET 13.0 0.0 0.0
							CHANNELS 3 Zrotation Xrotation Yrotation
							JOINT Right-Knee
							{
								OFFSET 0.0 -42.0 0.0
								CHANNELS 3 Zrotation Xrotation Yrotation
								JOINT Right-Ankle
								{
									OFFSET 0.0 -50.0 5.0
									CHANNELS 3 Zrotation Xrotation Yrotation
									JOINT Right-Foot
									{
										OFFSET 0.0 0.0 -5.0
										CHANNELS 3 Zrotation Xrotation Yrotation
										End Site
										{
											OFFSET 0.0 0.0 -0.0
										}
									}
								}
							}
						}
					}
				}
			}
		}
	}
}
MOTION
Frames: 11                
Frame Time: 0.01
0.0 180.0 0.0 -0.0 0.0 -0.0 -0.0 0.0 -0.0 -156.60803 -67.00353 46.50872 8.537736E-7 1.7075472E-6 1.7075472E-6 90.20855 62.83073 -50.901146 -122.07383 21.738722 -39.691944 10.385032 13.986346 -28.01718 -3.4150949E-6 -1.0177777E-13 3.4150949E-6 -3.4150949E-6 -1.0177777E-13 3.4150949E-6 -3.4150949E-6 -1.0177777E-13 3.4150949E-6 -69.39187 -31.052675 41.65655 -0.0 0.0 -0.0 -94.692665 4.3934054 -93.28791 1.7075474E-6 3.4150944E-6 -5.1226416E-6
0.0 180.0 0.0 -0.0 0.0 -0.0 -0.0 0.0 -0.0 -156.60803 -67.00353 46.50872 8.537736E-7 1.7075472E-6 1.7075472E-6 90.20855 62.83073 -50.901146 -122.0733 21.739103 -39.699226 10.387094 13.985866 -28.02741 0.0 -5.1226407E-6 0.0 0.0 -5.1226407E-6 0.0 0.0 -5.1226407E-6 0.0 -69.390854 -31.059525 41.658802 -0.0 0.0 -0.0 -94.692665 4.3934054 -93.28791 1.7075474E-6 3.4150944E-6 -5.1226416E-6
0.0 180.0 0.0 -0.0 0.0 -0.0 -0.0 0.0 -0.0 -156.60803 -67.00353 46.50872 8.537736E-7 1.7075472E-6 1.7075472E-6 90.20855 62.83073 -50.901146 -122.0733 21.739103 -39.699226 10.387094 13.985866 -28.02741 0.0 -5.1226407E-6 0.0 0.0 -5.1226407E-6 0.0 0.0 -5.1226407E-6 0.0 -69.390854 -31.059525 41.658802 -0.0 0.0 -0.0 -94.692665 4.3934054 -93.28791 1.7075474E-6 3.4150944E-6 -5.1226416E-6
0.0 180.0 0.0 -0.0 0.0 -0.0 -0.0 0.0 -0.0 -156.60803 -67.00353 46.50872 8.537736E-7 1.7075472E-6 1.7075472E-6 90.20855 62.83073 -50.901146 -122.0733 21.739103 -39.699226 10.387094 13.985866 -28.02741 0.0 -5.1226407E-6 0.0 0.0 -5.1226407E-6 0.0 0.0 -5.1226407E-6 0.0 -69.390854 -31.059525 41.658802 -0.0 0.0 -0.0 -94.692665 4.3934054 -93.28791 1.7075474E-6 3.4150944E-6 -5.1226416E-6
0.0 180.0 0.0 -0.0 0.0 -0.0 -0.0 0.0 -0.0 -156.60803 -67.00353 46.50872 8.537736E-7 1.7075472E-6 1.7075472E-6 90.20855 62.83073 -50.901146 -122.07383 21.738722 -39.691944 10.385032 13.986346 -28.01718 -3.4150949E-6 -1.0177777E-13 3.4150949E-6 -3.4150949E-6 -1.0177777E-13 3.4150949E-6 -3.4150949E-6 -1.0177777E-13 3.4150949E-6 -69.39187 -31.052675 41.65655 -0.0 0.0 -0.0 -94.692665 4.3934054 -93.28791 1.7075474E-6 3.4150944E-6 -5.1226416E-6
0.0 180.0 0.0 -0.0 0.0 -0.0 -0.0 0.0 -0.0 -156.60803 -67.00353 46.50872 8.537736E-7 1.7075472E-6 1.7075472E-6 90.20855 62.83073 -50.901146 -122.07383 21.738722 -39.691944 10.385032 13.986346 -28.01718 -3.4150949E-6 -1.0177777E-13 3.4150949E-6 -3.4150949E-6 -1.0177777E-13 3.4150949E-6 -3.4150949E-6 -1.0177777E-13 3.4150949E-6 -69.39187 -31.052675 41.65655 -0.0 0.0 -0.0 -94.692665 4.3934054 -93.28791 1.7075474E-6 3.4150944E-6 -5.1226416E-6
0.0 180.0 0.0 -0.0 0.0 -0.0 -0.0 0.0 -0.0 -156.60803 -67.00353 46.50872 8.537736E-7 1.7075472E-6 1.7075472E-6 90.23515 62.83282 -50.935196 -122.07405 21.735624 -39.70768 10.385032 13.986346 -28.01718 -3.4150949E-6 -1.0177777E-13 3.4150949E-6 -3.4150949E-6 -1.0177777E-13 3.4150949E-6 -3.4150949E-6 -1.0177777E-13 3.4150949E-6 -69.39187 -31.052675 41.65655 -0.0 0.0 -0.0 -94.692665 4.3934054 -93.28791 1.7075474E-6 3.4150944E-6 -5.1226416E-6
0.0 180.0 0.0 -0.0 0.0 -0.0 -0.0 0.0 -0.0 -156.60803 -67.00353 46.50872 8.537736E-7 1.7075472E-6 1.7075472E-6 90.23515 62.83282 -50.935196 -122.07405 21.735624 -39.70768 10.385032 13.986346 -28.01718 -3.4150949E-6 -1.0177777E-13 3.4150949E-6 -3.4150949E-6 -1.0177777E-13 3.4150949E-6 -3.4150949E-6 -1.0177777E-13 3.4150949E-6 -69.39187 -31.052675 41.65655 -0.0 0.0 -0.0 -94.692665 4.3934054 -93.28791 1.7075474E-6 3.4150944E-6 -5.1226416E-6
0.0 180.0 0.0 -0.0 0.0 -0.0 -0.0 0.0 -0.0 -156.60803 -67.00353 46.50872 8.537736E-7 1.7075472E-6 1.7075472E-6 90.204025 62.82857 -50.8854 -122.077675 21.747076 -39.682552 10.385032 13.986346 -28.01718 -3.4150949E-6 -1.0177777E-13 3.4150949E-6 -3.4150949E-6 -1.0177777E-13 3.4150949E-6 -3.4150949E-6 -1.0177777E-13 3.4150949E-6 -69.39187 -31.052675 41.65655 -0.0 0.0 -0.0 -94.692665 4.3934054 -93.28791 1.7075474E-6 3.4150944E-6 -5.1226416E-6
0.0 180.0 0.0 -0.0 0.0 -0.0 -0.0 0.0 -0.0 -156.60803 -67.00353 46.50872 8.537736E-7 1.7075472E-6 1.7075472E-6 90.204025 62.82857 -50.8854 -122.077675 21.747076 -39.682552 10.385032 13.986346 -28.01718 -3.4150949E-6 -1.0177777E-13 3.4150949E-6 -3.4150949E-6 -1.0177777E-13 3.4150949E-6 -3.4150949E-6 -1.0177777E-13 3.4150949E-6 -69.39187 -31.052675 41.65655 -0.0 0.0 -0.0 -94.692665 4.3934054 -93.28791 1.7075474E-6 3.4150944E-6 -5.1226416E-6
0.0 180.0 0.0 -0.0 0.0 -0.0 -0.0 0.0 -0.0 -156.60803 -67.00353 46.50872 8.537736E-7 1.7075472E-6 1.7075472E-6 90.204025 62.82857 -50.8854 -122.077675 21.747076 -39.682552 10.385032 13.986346 -28.01718 -3.4150949E-6 -1.0177777E-13 3.4150949E-6 -3.4150949E-6 -1.0177777E-13 3.4150949E-6 -3.4150949E-6 -1.0177777E-13 3.4150949E-6 -69.39187 -31.052675 41.65655 -0.0 0.0 -0.0 -94.692665 4.3934054 -93.28791 1.7075474E-6 3.4150944E-6 -5.1226416E-6
